<svg width="512" height="512" viewBox="0 0 512 512" fill="none" xmlns="http://www.w3.org/2000/svg">
<rect width="512" height="512" fill="#00EAF8"/>
<path d="M192.375 206.843C192.375 206.843 196.654 200.034 205.974 194.65C215.294 189.267 223.329 188.966 223.329 188.966C218.066 181.694 208.726 183.06 202.037 186.917C195.609 190.653 189.141 198.226 192.375 206.843ZM175.16 227.633C163.952 208.229 169.114 183.562 192.475 170.084C213.065 158.192 236.024 161.908 249.884 185.912C250.125 186.314 250.366 186.756 250.607 187.198C251.11 188.102 250.768 189.247 249.864 189.769L199.084 219.076C202.901 225.082 214.009 227.955 226.864 220.522C232.991 216.987 237.571 211.584 240.624 204.071C241.006 203.127 242.05 202.665 243.015 202.986C246.831 204.272 254.304 207.104 258.08 208.329C259.084 208.651 259.627 209.695 259.325 210.7C255.448 224.459 245.887 233.659 235.341 239.746C210.152 254.289 186.369 247.037 175.16 227.633Z" fill="#04474D"/>
<path d="M297.812 246.854C284.033 246.854 269.329 241.551 269.329 218.692V186.432H259.888C258.823 186.432 257.96 185.568 257.96 184.503V168.675C257.96 167.61 258.823 166.746 259.888 166.746H271.599L274.793 149.09C274.953 148.166 275.757 147.503 276.681 147.503H293.293C294.357 147.503 295.221 148.367 295.221 149.431V166.726H313.902C314.967 166.726 315.831 167.59 315.831 168.655V184.483C315.831 185.548 314.967 186.412 313.902 186.412H295.221V220.921C295.221 223.673 297.391 226.043 300.143 226.084C304.14 226.124 305.526 222.629 305.526 219.274C305.526 217.747 305.285 216.1 304.984 214.795C304.722 213.61 305.646 212.464 306.872 212.464H321.736C322.499 212.464 323.203 212.906 323.504 213.609C324.609 216.161 325.091 219.234 325.211 221.845C325.211 237.614 314.304 246.854 297.812 246.854Z" fill="#04474D"/>
<path d="M118.555 185.691C129.623 185.691 136.433 194.77 136.433 206.14C136.433 217.348 129.924 226.427 118.856 226.427C107.788 226.427 100.376 218.091 100.376 205.376C100.376 192.962 108.25 185.691 118.555 185.691ZM75.7898 273.512C82.5792 267.204 91.2768 262.906 100.979 260.897V234.884C105.82 241.995 114.618 246.856 124.903 246.856C147.922 246.856 162.626 228.979 162.626 206.28C162.626 182.959 147.32 165.102 124.762 165.102C113.694 165.102 105.981 169.943 100.979 177.515V168.697C100.979 167.633 100.115 166.769 99.0506 166.769H76.8543C75.7897 166.769 74.926 167.633 74.926 168.697V274.375C75.2273 274.074 75.4884 273.793 75.7898 273.512Z" fill="#04474D"/>
<path d="M113.593 267.345C123.135 267.345 134.645 269.916 146.315 279.297C144.186 282.47 136.171 293.237 134.042 296.411C127.072 290.204 119.198 289.139 115.1 289.139C103.128 289.139 94.8118 297.013 94.8118 308.222C94.8118 319.431 103.148 327.445 115.1 327.445C119.037 327.445 127.072 326.381 134.042 320.174C136.171 323.348 144.186 334.114 146.315 337.288C134.645 346.669 123.135 349.099 113.593 349.099C86.777 349.099 68.6183 331.222 68.6183 308.222C68.6183 285.222 86.777 267.345 113.593 267.345Z" fill="#04474D"/>
<path d="M155.093 345.523V270.94C155.093 269.876 155.957 269.012 157.022 269.012H179.218C180.282 269.012 181.146 269.876 181.146 270.94V345.523C181.146 346.588 180.282 347.452 179.218 347.452H157.022C155.957 347.452 155.093 346.588 155.093 345.523Z" fill="#04474D"/>
<path d="M215.676 285.825C218.247 270.981 231.725 267.345 237.49 267.345C239.278 267.345 239.901 267.345 241.146 267.526C242.09 267.666 242.793 268.47 242.793 269.434V290.867C242.793 292.052 241.729 292.976 240.564 292.775C237.651 292.273 234.618 292.192 232.931 292.192C222.787 292.192 216.58 298.701 216.58 308.242V345.544C216.58 346.608 215.716 347.472 214.651 347.472H192.455C191.391 347.472 190.527 346.608 190.527 345.544V270.96C190.527 269.896 191.391 269.032 192.455 269.032H213.748C214.812 269.032 215.676 269.896 215.676 270.96V285.825Z" fill="#04474D"/>
<path d="M291.103 267.345C300.263 267.345 311.21 269.715 322.399 278.192C323.222 278.814 323.383 279.98 322.78 280.823C320.269 284.379 315.328 291.047 312.737 294.723C312.094 295.627 310.849 295.788 309.965 295.125C303.416 290.083 296.406 289.179 292.61 289.179C280.638 289.179 275.013 297.054 275.013 308.262C275.013 319.471 280.638 327.485 292.61 327.485C296.245 327.485 303.396 326.582 309.965 321.52C310.849 320.837 312.094 321.017 312.737 321.921C315.328 325.597 320.269 332.266 322.78 335.822C323.383 336.665 323.202 337.83 322.379 338.453C311.21 346.91 300.243 349.139 291.103 349.139C264.287 349.139 246.108 331.262 246.108 308.262C246.108 285.262 264.287 267.345 291.103 267.345Z" fill="#04474D"/>
<path d="M329.751 345.522V239.904C329.751 238.839 330.615 237.976 331.679 237.976H353.875C354.94 237.976 355.804 238.839 355.804 239.904V345.522C355.804 346.586 354.94 347.45 353.875 347.45H331.679C330.615 347.45 329.751 346.586 329.751 345.522Z" fill="#04474D"/>
<path d="M385.07 309.105C385.07 309.105 389.349 302.296 398.669 296.912C407.99 291.529 416.024 291.228 416.024 291.228C410.762 283.956 401.421 285.322 394.732 289.179C388.304 292.915 381.836 300.488 385.07 309.105ZM367.856 329.875C356.647 310.471 361.809 285.804 385.171 272.326C405.76 260.434 428.72 264.15 442.58 288.155C442.821 288.556 443.062 288.998 443.303 289.44C443.805 290.344 443.464 291.489 442.56 292.011L391.779 321.318C395.596 327.324 406.704 330.197 419.56 322.764C425.686 319.229 430.286 313.826 433.319 306.293C433.701 305.349 434.746 304.887 435.71 305.208C439.526 306.494 446.999 309.326 450.775 310.552C451.759 310.873 452.322 311.917 452.021 312.922C448.124 326.681 438.582 335.881 428.037 341.968C402.848 356.551 379.064 349.299 367.856 329.875Z" fill="#04474D"/>
<path d="M113.533 267.362C122.251 267.362 132.596 269.512 143.222 277.024C144.949 278.249 145.371 280.62 144.146 282.327C141.856 285.501 138.562 289.98 136.252 293.214C135.066 294.862 132.777 295.283 131.089 294.138C124.943 289.94 118.595 289.157 115.08 289.157C103.108 289.157 94.7919 297.031 94.7919 308.24C94.7919 319.448 103.128 327.463 115.08 327.463C118.475 327.463 124.923 326.679 131.089 322.481C132.777 321.336 135.066 321.758 136.252 323.405C138.582 326.639 141.876 331.119 144.146 334.292C145.371 336.02 144.949 338.39 143.222 339.616C132.616 347.108 122.251 349.117 113.553 349.117C86.737 349.117 68.5783 331.259 68.5783 308.24C68.5582 285.22 86.737 267.362 113.533 267.362Z" fill="#04474D"/>
<path d="M156.781 263.427C161.742 265.496 167.126 266.019 171.967 264.492C176.808 262.965 181.066 259.309 183.316 254.187C184.802 250.813 185.345 246.534 183.758 242.939C181.99 238.981 178.113 236.792 174.417 235.767C167.568 233.879 156.479 234.482 151.598 240.548C145.311 248.322 147.42 259.51 156.781 263.427Z" fill="white"/>
</svg>
